<?xml version="1.0" encoding="UTF-8"?>
<!DOCTYPE svg PUBLIC "-//W3C//DTD SVG 1.1//EN" "http://www.w3.org/Graphics/SVG/1.1/DTD/svg11.dtd">
<svg xmlns="http://www.w3.org/2000/svg" version="1.1" width="32px" height="32px" style="shape-rendering:geometricPrecision; text-rendering:geometricPrecision; image-rendering:optimizeQuality; fill-rule:evenodd; clip-rule:evenodd" xmlns:xlink="http://www.w3.org/1999/xlink">
<g><path style="opacity:0.912" fill="#39417b" d="M 5.5,-0.5 C 9.5,-0.5 13.5,-0.5 17.5,-0.5C 18.6085,0.28997 19.9419,0.78997 21.5,1C 22.3366,2.01127 22.67,3.17793 22.5,4.5C 14.575,7.47936 6.90831,7.14603 -0.5,3.5C -0.5,2.83333 -0.5,2.16667 -0.5,1.5C 1.69764,1.12487 3.69764,0.458201 5.5,-0.5 Z"/></g>
<g><path style="opacity:0.974" fill="#292d61" d="M -0.5,3.5 C 6.90831,7.14603 14.575,7.47936 22.5,4.5C 22.5,6.83333 22.5,9.16667 22.5,11.5C 14.575,14.4794 6.90831,14.146 -0.5,10.5C -0.5,8.16667 -0.5,5.83333 -0.5,3.5 Z"/></g>
<g><path style="opacity:1" fill="#3d467f" d="M -0.5,10.5 C 6.90831,14.146 14.575,14.4794 22.5,11.5C 22.5,13.1667 22.5,14.8333 22.5,16.5C 18.7016,17.4834 14.7016,17.8168 10.5,17.5C 10.5,18.5 10.5,19.5 10.5,20.5C 6.53567,20.5107 2.869,19.5107 -0.5,17.5C -0.5,15.1667 -0.5,12.8333 -0.5,10.5 Z"/></g>
<g><path style="opacity:0.982" fill="#aec9ca" d="M 22.5,16.5 C 25.5,16.5 28.5,16.5 31.5,16.5C 31.5,21.5 31.5,26.5 31.5,31.5C 24.5,31.5 17.5,31.5 10.5,31.5C 10.5,30.1667 10.5,28.8333 10.5,27.5C 10.5,25.1667 10.5,22.8333 10.5,20.5C 10.5,19.5 10.5,18.5 10.5,17.5C 14.7016,17.8168 18.7016,17.4834 22.5,16.5 Z"/></g>
<g><path style="opacity:0.894" fill="#282c5e" d="M -0.5,17.5 C 2.869,19.5107 6.53567,20.5107 10.5,20.5C 10.5,22.8333 10.5,25.1667 10.5,27.5C 6.62796,27.1279 2.96129,26.1279 -0.5,24.5C -0.5,22.1667 -0.5,19.8333 -0.5,17.5 Z"/></g>
<g><path style="opacity:1" fill="#d9e6e6" d="M 19.5,20.5 C 21.3307,21.0522 22.9974,21.0522 24.5,20.5C 25.4656,22.396 25.7989,24.396 25.5,26.5C 26.2942,27.84 24.2942,28.0067 19.5,27C 18.232,24.8368 18.232,22.6702 19.5,20.5 Z"/></g>
</svg>
